<svg width="24" height="24" viewBox="0 0 100 100" xmlns="http://www.w3.org/2000/svg" class="icon">
  <!-- <rect x="2" y="2" width="96" height="96" rx="48" stroke-width="5" fill="none" stroke="#fff" class="round" /> -->
  <circle cx="50" cy="50" r="45" stroke="#ffffff" fill="none" stroke-width="4" class="round" />
  <path
    d="M35.459 31H40.3027V59.5937C40.3027 62.1458 39.834 64.3138 38.8965 66.0977C37.959 67.8815 36.6374 69.2357 34.9316 70.1602C33.2259 71.0846 31.2142 71.5469 28.8965 71.5469C26.709 71.5469 24.7624 71.1497 23.0566 70.3555C21.3509 69.5482 20.0098 68.4023 19.0332 66.918C18.0566 65.4336 17.5684 63.6693 17.5684 61.625H22.334C22.334 62.7578 22.6139 63.7474 23.1738 64.5937C23.7467 65.4271 24.528 66.0781 25.5176 66.5469C26.5072 67.0156 27.6335 67.25 28.8965 67.25C30.2897 67.25 31.4746 66.957 32.4512 66.3711C33.4277 65.7852 34.1699 64.9258 34.6777 63.793C35.1986 62.6471 35.459 61.2474 35.459 59.5937V31ZM62.3535 71H50.0098V31H62.9004C66.7806 31 70.1009 31.8008 72.8613 33.4023C75.6217 34.9909 77.7376 37.276 79.209 40.2578C80.6803 43.2266 81.416 46.7812 81.416 50.9219C81.416 55.0885 80.6738 58.6758 79.1895 61.6836C77.7051 64.6784 75.5436 66.9831 72.7051 68.5977C69.8665 70.1992 66.416 71 62.3535 71ZM54.8535 66.7031H62.041C65.3483 66.7031 68.0892 66.0651 70.2637 64.7891C72.4382 63.513 74.0592 61.6966 75.127 59.3398C76.1947 56.9831 76.7285 54.1771 76.7285 50.9219C76.7285 47.6927 76.2012 44.9128 75.1465 42.582C74.0918 40.2383 72.5163 38.4414 70.4199 37.1914C68.3236 35.9284 65.7129 35.2969 62.5879 35.2969H54.8535V66.7031Z"
    stroke-width="2" fill="#fff">
  </path>
  <style>
    .round {
      /* stroke-dasharray: 100 0; */
      stroke-dashoffset: 100;
      /* animation: round 20s infinite; */
    }
    .loading {
      animation: round 2s infinite;
    }

    @keyframes round {
      0% {
        stroke-dasharray: 0 100;
      }

      100% {
        stroke-dasharray: 100 0;
      }
    }
  </style>
</svg>